<?xml version="1.0" encoding="UTF-8" standalone="no"?>
<!-- Created with Inkscape (http://www.inkscape.org/) -->

<svg
   width="190.93353mm"
   height="176.07095mm"
   viewBox="0 0 190.93353 176.07095"
   version="1.1"
   id="svg1"
   xmlns="http://www.w3.org/2000/svg"
   xmlns:svg="http://www.w3.org/2000/svg">
  <defs
     id="defs1" />
  <g
     id="layer1"
     transform="translate(-1.1724705,-71.665041)">
    <circle
       style="fill:none;stroke:#707f99;stroke-width:0.399442"
       id="path1"
       cx="159.69629"
       cy="-113.64814"
       r="67.164543"
       transform="rotate(90)" />
    <rect
       style="fill:none;stroke:#707f99;stroke-width:0.425443"
       id="rect11"
       width="38.668571"
       height="7.909481"
       x="-191.0999"
       y="-236.40553"
       transform="scale(-1)" />
    <rect
       style="fill:none;stroke:#707f99;stroke-width:0.425443"
       id="rect11-8"
       width="38.668571"
       height="7.909481"
       x="51.501987"
       y="236.49261" />
    <rect
       style="fill:none;stroke:#707f99;stroke-width:0.425443"
       id="rect11-5"
       width="38.668571"
       height="7.909481"
       x="1.9143587"
       y="152.10745" />
    <rect
       style="fill:none;stroke:#707f99;stroke-width:0.425443"
       id="rect11-3"
       width="38.668571"
       height="7.909481"
       x="49.433792"
       y="76.16433" />
    <rect
       style="fill:none;stroke:#707f99;stroke-width:0.425443"
       id="rect11-38"
       width="38.668571"
       height="7.909481"
       x="150.2207"
       y="82.765915" />
    <path
       id="circle8"
       style="fill:none;stroke:#707f99;stroke-width:0.399442"
       d="m 179.20094,158.94114 c -0.12842,-13.32907 -4.45692,-26.57124 -12.26452,-37.42551 -7.8069,-10.94119 -19.03317,-19.33048 -31.70575,-23.716719 -4.45189,-1.558671 -9.15448,-2.640459 -13.808,-3.194271 -4.93924,-0.58536 -9.94471,-0.620353 -14.86431,-0.07952 2.84179,21.30794 5.68359,42.61589 8.52539,63.92383 20.72331,5.70703 41.44661,11.41406 62.16992,17.12109 1.3585,-5.44942 2.00954,-11.0164 1.94727,-16.6289 z" />
    <path
       id="circle9"
       style="fill:none;stroke:#707f99;stroke-width:0.399442"
       d="m 102.9568,95.017308 c -15.08415,2.456118 -29.16202,10.371032 -39.07433,22.013932 -1.79652,2.091 -3.4584,4.29758 -4.97255,6.6013 11.84471,7.36062 23.6608,14.7807 35.49483,22.16418 5.73284,3.58264 11.46569,7.16529 17.19853,10.74793 -2.88216,-20.50911 -5.76432,-41.01823 -8.64648,-61.527342 z" />
    <path
       id="circle10"
       style="fill:none;stroke:#707f99;stroke-width:0.399442"
       d="m 57.34547,126.11106 c -4.67863,7.82643 -7.65302,16.59719 -8.77149,25.625 -1.65122,13.34132 0.93863,27.22838 7.39199,39.10784 3.3633,6.24956 7.78439,11.94883 12.99473,16.81599 12.41305,-14.04201 24.89114,-28.04671 37.33034,-42.07496 1.64184,-1.84936 3.28368,-3.69873 4.92552,-5.54809 C 93.25953,148.72825 75.3025,137.41965 57.34547,126.11106 Z" />
    <path
       style="fill:none;stroke:#707f99;stroke-width:0.299;stroke-linecap:butt;stroke-linejoin:miter;stroke-dasharray:none;stroke-opacity:1"
       d="M 155.53113,90.767806 138.55867,119.19327 Z"
       id="path11" />
    <path
       style="fill:none;stroke:#707f99;stroke-width:0.299;stroke-linecap:butt;stroke-linejoin:miter;stroke-dasharray:none;stroke-opacity:1"
       d="M 157.45672,228.51355 137.89363,200.54672 Z"
       id="path12" />
    <path
       style="fill:none;stroke:#707f99;stroke-width:0.299;stroke-linecap:butt;stroke-linejoin:miter;stroke-dasharray:none;stroke-opacity:1"
       d="m 71.437257,236.59623 16.04111,-32.04305 z"
       id="path13" />
    <path
       style="fill:none;stroke:#707f99;stroke-width:0.299;stroke-linecap:butt;stroke-linejoin:miter;stroke-dasharray:none;stroke-opacity:1"
       d="m 40.641631,155.95744 22.056179,1.78025 z"
       id="path14" />
    <path
       style="fill:none;stroke:#707f99;stroke-width:0.299;stroke-linecap:butt;stroke-linejoin:miter;stroke-dasharray:none;stroke-opacity:1"
       d="M 69.530045,84.349385 88.890604,118.54854 Z"
       id="path15" />
    <path
       id="rect15"
       style="fill:none;stroke:#707f99;stroke-width:0.325;stroke-dasharray:none"
       d="m 151.80779,89.086676 c 11.83138,0 23.66276,0 35.49414,0 0,-1.57747 0,-3.15495 0,-4.73242 -11.83138,0 -23.66276,0 -35.49414,0 0,1.57747 0,3.15495 0,4.73242 z" />
    <path
       id="rect16"
       style="fill:none;stroke:#707f99;stroke-width:0.325;stroke-dasharray:none"
       d="m 189.51103,230.08461 c -11.83073,0 -23.66146,0 -35.49218,0 0,1.57747 0,3.15494 0,4.73242 11.83072,0 23.66145,0 35.49218,0 0,-1.57748 0,-3.15495 0,-4.73242 z" />
    <path
       id="rect17"
       style="fill:none;stroke:#707f99;stroke-width:0.325;stroke-dasharray:none"
       d="m 53.090536,242.81394 c 11.83073,0 23.66146,0 35.492195,0 0,-1.57812 0,-3.15625 0,-4.73437 -11.830735,0 -23.661465,0 -35.492195,0 0,1.57812 0,3.15625 0,4.73437 z" />
    <path
       id="rect18"
       style="fill:none;stroke:#707f99;stroke-width:0.325;stroke-dasharray:none"
       d="m 3.5021916,158.42891 c 11.8307304,0 23.6614604,0 35.4921904,0 0,-1.57812 0,-3.15625 0,-4.73437 -11.83073,0 -23.66146,0 -35.4921904,0 0,1.57812 0,3.15625 0,4.73437 z" />
    <path
       id="rect19"
       style="fill:none;stroke:#707f99;stroke-width:0.325;stroke-dasharray:none"
       d="m 51.021697,82.486837 c 11.83073,0 23.661459,0 35.492184,0 0,-1.578118 0,-3.156248 0,-4.734368 -11.830725,0 -23.661454,0 -35.492184,0 0,1.57812 0,3.15625 0,4.734368 z" />
    <path
       id="path19"
       style="fill:none;stroke:#707f99;stroke-width:0.299;stroke-dasharray:none"
       d="m 177.58765,157.74582 c -0.37871,-13.08609 -4.92486,-26.06626 -12.85568,-36.55207 -7.63446,-10.15751 -18.37756,-17.93059 -30.40213,-22.031911 -7.28452,-2.474353 -15.16889,-3.666408 -22.94531,-3.388672 -1.02466,0.0398 -1.99815,0.08952 -3.03125,0.183594 2.722,20.414709 5.44401,40.829429 8.16602,61.244139 19.85286,5.4668 39.70572,10.9336 59.55859,16.40039 1.16344,-5.16793 1.65518,-10.52232 1.50976,-15.85547 z" />
    <path
       id="path22"
       style="fill:none;stroke:#707f99;stroke-width:0.299;stroke-dasharray:none"
       d="m 57.90406,128.33567 c -3.81455,6.76081 -6.33815,14.16765 -7.50549,21.86896 -0.93059,6.09084 -0.96293,12.38796 -0.0723,18.47734 0.91892,6.4496 2.8401,12.88309 5.69997,18.79167 1.86965,3.8765 4.23617,7.72126 6.8657,11.13772 1.83401,2.38509 3.82842,4.64859 5.98087,6.75165 C 82.1681,190.36046 95.4721,175.36563 108.78492,160.37864 91.82463,149.69765 74.86435,139.01666 57.90406,128.33567 Z" />
    <path
       id="path23"
       style="fill:none;stroke:#707f99;stroke-width:0.299;stroke-dasharray:none"
       d="m 101.61695,96.878636 c -9.71225,1.819517 -18.97892,6.035674 -26.79597,11.991404 -5.26584,3.99969 -9.93065,8.88056 -13.66497,14.29375 16.13987,10.06754 32.27484,20.14121 48.40235,30.22852 -2.64714,-18.83789 -5.29427,-37.67578 -7.94141,-56.513674 z" />
    <path
       id="circle23"
       style="fill:none;stroke:#707f99;stroke-width:0.399442"
       d="m 71.32789,209.75559 c 5.06869,4.30025 10.80711,7.80097 16.93164,10.38086 6.88672,-17.57227 13.77344,-35.14453 20.66016,-52.7168 -12.5306,14.11198 -25.0612,28.22396 -37.5918,42.33594 z" />
    <path
       id="path24"
       style="fill:none;stroke:#707f99;stroke-width:0.299;stroke-dasharray:none"
       d="m 73.615,209.5759 c 4.23262,3.40583 8.81386,6.20607 13.77148,8.43945 5.60156,-14.29101 11.20313,-28.58203 16.80469,-42.87304 C 93.99911,186.62017 83.80706,198.09804 73.615,209.5759 Z" />
    <path
       id="circle24"
       style="fill:none;stroke:#707f99;stroke-width:0.399442"
       d="m 114.60328,161.60715 c -7.83268,19.88216 -15.66537,39.76432 -23.49805,59.64649 12.6866,4.67842 26.94457,5.28123 40.00853,1.62757 12.99607,-3.55117 24.94948,-11.34725 33.44824,-21.89323 3.74223,-4.61135 6.78756,-9.63269 9.17604,-15.08395 0.9864,-2.27644 1.90311,-4.72164 2.63868,-7.16797 -20.59115,-5.70964 -41.18229,-11.41927 -61.77344,-17.12891 z" />
    <path
       id="path25"
       style="fill:none;stroke:#707f99;stroke-width:0.299;stroke-dasharray:none"
       d="m 115.55836,163.51731 c -7.45768,18.92643 -14.91537,37.85286 -22.37305,56.77929 5.84401,1.98474 12.09328,3.11346 18.24417,3.31785 11.43178,0.42042 22.86015,-2.2895 32.92415,-7.81484 6.72799,-3.6806 12.95329,-8.68442 17.96355,-14.60182 5.33986,-6.26254 9.46124,-13.56006 12.04391,-21.3758 -19.60091,-5.43489 -39.20182,-10.86979 -58.80273,-16.30468 z" />
  </g>
</svg>
