<?xml version="1.0" encoding="UTF-8" standalone="no"?>
<!-- Created with Inkscape (http://www.inkscape.org/) -->

<svg
   width="123.93629mm"
   height="139.18813mm"
   viewBox="0 0 123.93629 139.18813"
   version="1.1"
   id="svg1"
   xml:space="preserve"
   xmlns="http://www.w3.org/2000/svg"
   xmlns:svg="http://www.w3.org/2000/svg"><defs
     id="defs1" /><g
     id="layer3"
     transform="translate(-41.194633,-74.67929)"><path
       style="display:inline;fill:none;stroke:#707f99;stroke-width:0.264583px;stroke-linecap:butt;stroke-linejoin:miter;stroke-opacity:1"
       d="m 79.036352,164.73094 c -16.356953,3.59366 -24.291205,-2.13907 -30.970542,-17.44085 -8.157884,-18.689 -9.408915,-21.18989 -0.986248,-30.48784 8.245161,-9.102 11.248319,-17.684893 21.752208,-25.676017 28.837775,-21.939136 44.5701,-21.707708 69.64682,0.430831 17.05217,15.054206 18.34636,32.727856 25.18327,47.421456 6.56562,14.11056 -12.43253,28.82731 -26.46495,26.51801 1.10936,2.90122 10.56799,24.21714 15.57091,44.51062 0.90589,3.67459 -0.3964,4.38685 -1.96488,-0.67097 -7.67366,-24.745 -10.24723,-30.44328 -17.28823,-46.06373 -0.19289,20.36087 -8.62215,42.35735 -11.42007,46.74909 -3.74429,5.87721 -3.72923,4.30398 -1.26577,-1.40103 5.70994,-13.22337 10.58092,-32.62097 10.32594,-47.5806 -3.75725,11.35509 -17.16607,13.53096 -22.54482,13.43665 -4.97412,-0.0872 -19.616722,-0.31282 -23.947875,-13.09223 0.716984,22.72009 8.922785,42.67456 11.609598,47.6522 3.062088,5.67288 1.690078,6.12146 -1.529204,0.7238 -7.778363,-14.13067 -10.586339,-28.62796 -12.270336,-46.5964 -11.095555,17.51683 -15.74156,31.18162 -18.446417,45.3288 -1.039123,5.43492 -2.484014,6.18823 -2.029838,1.0829 1.238498,-13.92178 7.226181,-28.8645 17.040434,-44.84469 z"
       id="path1" /><path
       style="fill:none;stroke:#707f99;stroke-width:0.264583px;stroke-linecap:butt;stroke-linejoin:miter;stroke-opacity:1"
       d="m 74.602202,96.975065 c -2.366739,3.012581 -2.952365,4.287975 -4.163228,6.940565 -1.210024,3.38333 -3.795743,11.98505 0.190282,22.25144 2.467207,6.35453 5.086405,11.90078 7.408765,17.41557 1.188309,2.82182 3.737039,8.45108 4.215381,10.46585 2.081938,8.7691 -4.536734,9.85031 -12.440655,9.899 -7.340987,0.0452 -11.969468,-3.70548 -15.360263,-8.28355 -3.018082,-4.07485 -5.85537,-10.7038 -8.266427,-16.74286 -1.773913,-4.44318 -6.001432,-11.98271 -0.58598,-17.98733 4.891009,-5.42313 11.417836,-14.48436 16.043757,-20.84199 4.338878,-5.963123 17.96119,-14.488408 17.96119,-14.488408 19.657905,-12.502365 31.290796,-11.260635 46.826306,-1.60679 1.95571,1.215287 12.69746,9.351987 17.00465,14.805886 7.4211,8.697772 11.38796,19.775772 14.66485,30.544642 3.61486,12.11953 7.51945,13.16436 2.60631,22.60594 -1.72688,3.31854 -10.91382,12.18019 -22.91681,11.24186 -8.51488,-2.51398 -3.71229,-14.61702 -1.65259,-22.65536 1.69603,-6.61905 3.1107,-14.2026 3.84736,-22.35048 0.39066,-4.32099 0.20282,-8.12143 -1.04553,-12.38146 -0.37455,-1.27816 -1.71304,-4.19481 -4.59248,-8.409349 1.65821,3.016629 3.28464,7.788609 3.80355,10.323939 1.43831,7.02743 -0.63906,20.58934 -3.2855,30.25824 -1.19236,4.35634 -2.08049,7.84332 -3.16212,11.75369 -1.19222,4.31016 -0.19962,8.87323 -4.148,14.63391 -3.99042,5.82203 -13.10703,8.2671 -19.28947,8.22182 -6.25588,-0.0458 -13.760904,-1.81555 -18.542345,-6.25211 -4.901112,-4.5476 -4.728846,-10.82456 -7.810877,-18.47443 -3.930114,-9.75489 -9.287902,-19.38081 -11.045763,-27.02078 -1.78904,-7.77548 -0.904358,-16.60438 3.735637,-23.867455 z"
       id="path2" /><path
       style="fill:none;stroke:#707f99;stroke-width:0.185553px;stroke-linecap:butt;stroke-linejoin:miter;stroke-opacity:1"
       d="m 103.20422,162.83855 c 1.98456,1.08167 8.08065,1.01193 9.69052,-0.0451 -1.22974,-0.0836 -4.08761,-1.25429 -5.00889,-3.22691 -0.87997,1.78257 -3.09039,2.93312 -4.68163,3.272 z"
       id="path3" /><path
       style="fill:none;stroke:#707f99;stroke-width:0.201324px;stroke-linecap:butt;stroke-linejoin:miter;stroke-opacity:1"
       d="m 104.63037,148.54053 c 3.94969,-8.62774 -3.729,-5.30647 -1.96529,-2.53301 -5.959217,-0.12666 -4.280974,-7.42634 0.9037,-8.08072 3.52511,-0.44492 5.68363,-0.64225 8.04967,0.005 7.28455,1.99146 3.74113,9.63965 0.84052,7.85702 1.45127,-2.85525 -6.46303,-5.63159 -2.33884,2.85044 0,0 -2.60439,1.14873 -5.48976,-0.0983 z"
       id="path4" /><path
       style="fill:none;stroke:#707f99;stroke-width:0.242925px;stroke-linecap:butt;stroke-linejoin:miter;stroke-opacity:1"
       d="m 106.61069,151.47622 c -0.48889,-1.82854 -4.39888,-1.41053 -3.63133,-2.67102 1.30426,-2.14193 0.008,-1.35064 -2.42255,-1.78862 -4.814704,-0.86781 -4.373815,-8.47589 0.43289,-10.11868 4.70172,-1.6069 10.25254,-1.78838 14.20374,0.71503 3.02894,1.91908 3.6627,7.85746 -0.50344,9.35782 -2.21925,0.79922 -4.63801,-1.00099 -2.84232,2.10327 0.55264,0.95537 -2.7073,0.67151 -3.34909,2.36609 -1.45911,9.62662 3.4761,10.37416 10.7637,10.22547 -2.60283,1.61049 -5.40272,2.3233 -7.11698,2.78771 -1.95363,0.52926 -6.69152,0.50005 -8.63639,0.0621 -1.74402,-0.39271 -3.941375,-1.26763 -6.830772,-2.79168 7.768162,0.0687 12.141812,-1.08039 9.932542,-10.24749 z"
       id="path5" /><path
       style="fill:none;stroke:#707f99;stroke-width:0.294831px;stroke-linecap:butt;stroke-linejoin:miter;stroke-opacity:1"
       d="m 93.924285,112.57229 c -1.716636,-12.514 -6.209294,-9.97674 -10.810606,-5.56585 -1.420295,1.36152 -2.788363,4.57645 1.391465,5.99399 2.913155,0.50991 4.73992,0.67639 9.419141,-0.42814 z"
       id="path6" /><path
       style="fill:none;stroke:#707f99;stroke-width:0.294803px;stroke-linecap:butt;stroke-linejoin:miter;stroke-opacity:1"
       d="m 118.29162,112.36487 c 0.62468,-10.85483 5.28308,-12.23531 10.06039,-5.45829 2.18454,3.09896 0.0812,4.87458 -3.74589,5.67233 -2.10484,0.23932 -4.20967,0.39007 -6.3145,-0.21404 z"
       id="path7" /><path
       style="fill:none;stroke:#707f99;stroke-width:0.324328px;stroke-linecap:butt;stroke-linejoin:miter;stroke-opacity:1"
       d="m 119.91554,111.07314 c 0.1623,-2.89777 1.79719,-10.61102 6.59553,-4.17584 1.55426,2.08446 1.03108,3.3568 -1.05371,3.991 -1.77569,0.54017 -3.94513,0.67055 -5.54182,0.18484 z"
       id="path8" /><path
       style="fill:none;stroke:#707f99;stroke-width:0.314356px;stroke-linecap:butt;stroke-linejoin:miter;stroke-opacity:1"
       d="m 92.142073,111.23258 c -0.870144,-6.78937 -3.359839,-7.62456 -7.430977,-3.66576 -0.964937,1.12966 -2.375863,3.92638 1.524835,4.28141 1.998828,0.18193 3.903468,0.20075 5.906142,-0.61565 z"
       id="path9" /><path
       style="fill:none;stroke:#707f99;stroke-width:0.264583px;stroke-linecap:butt;stroke-linejoin:miter;stroke-opacity:1"
       d="m 121.37424,110.15703 c -0.2403,-0.28939 -0.37351,-1.21562 -0.10188,-2.70518 0.46869,-2.57017 2.29276,-3.346 4.05775,-1.1879 0.7174,0.87719 1.01364,1.57512 0.98521,2.59129 -0.0597,2.13332 -4.0175,2.41401 -4.94108,1.30179 z"
       id="path10" /><path
       style="fill:none;stroke:#707f99;stroke-width:0.264583px;stroke-linecap:butt;stroke-linejoin:miter;stroke-opacity:1"
       d="m 85.919646,107.55238 c 0.551345,-1.48835 3.711763,-3.07944 4.550684,-0.37356 0.395609,1.27601 0.342806,2.8979 0.03396,3.56583 -0.281153,0.60804 -3.245465,1.12263 -4.468681,0.28508 -0.9536,-0.65293 -0.289569,-3.0087 -0.115963,-3.47735 z"
       id="path11" /></g></svg>
