<?xml version="1.0" encoding="UTF-8" standalone="no"?>
<!-- Created with Inkscape (http://www.inkscape.org/) -->

<svg
   width="161.64983mm"
   height="161.64983mm"
   viewBox="0 0 161.64983 161.64983"
   version="1.1"
   id="svg1"
   xml:space="preserve"
   xmlns="http://www.w3.org/2000/svg"
   xmlns:svg="http://www.w3.org/2000/svg"><defs
     id="defs1" /><g
     id="layer2"
     transform="translate(-25.452257,-74.083452)"><circle
       style="fill:none;stroke:#707f99;stroke-width:0.365;stroke-dasharray:none"
       id="path2"
       cx="106.09209"
       cy="154.72328"
       r="79.184357" /><circle
       style="fill:none;stroke:#707f99;stroke-width:0.258596;stroke-dasharray:none"
       id="path2-6"
       cx="106.19469"
       cy="154.8589"
       r="77.238037" /><circle
       style="fill:none;stroke:#707f99;stroke-width:0.365;stroke-dasharray:none"
       id="path4"
       cx="106.09209"
       cy="155.13081"
       r="71.995171" /><circle
       style="fill:none;stroke:#707f99;stroke-width:0.257946;stroke-dasharray:none"
       id="path4-1"
       cx="106.09656"
       cy="155.16098"
       r="70.049179" /><path
       style="fill:none;stroke:#707f99;stroke-width:0.365;stroke-linecap:butt;stroke-linejoin:miter;stroke-dasharray:none;stroke-opacity:1"
       d="m 86.234831,140.66152 7.929843,7.28095 11.122476,-11.62498 -0.0796,35.51016 -12.622087,0.0761 0.02795,9.8182 31.338937,0.0877 0.0165,-9.97403 -8.52767,-0.0479 -0.17709,-46.46568 -13.72238,-0.0605 z"
       id="path5" /><path
       style="fill:none;stroke:#707f99;stroke-width:0.248517;stroke-linecap:butt;stroke-linejoin:miter;stroke-dasharray:none;stroke-opacity:1"
       d="m 88.38618,140.50072 5.720638,5.30866 12.721902,-12.99728 -0.15155,40.65217 -12.593215,0.0373 -0.01615,6.62273 28.215005,-0.003 0.0155,-6.72586 -8.43891,-0.0109 -0.18007,-46.83599 -11.3429,0.0176 z"
       id="path5-2" /></g></svg>
