<?xml version="1.0" encoding="UTF-8" standalone="no"?>
<!-- Created with Inkscape (http://www.inkscape.org/) -->

<svg
   width="181.94359mm"
   height="170.84912mm"
   viewBox="0 0 181.94359 170.84912"
   version="1.1"
   id="svg1"
   xml:space="preserve"
   sodipodi:docname="portt1.svg"
   inkscape:version="1.4.2 (f4327f4, 2025-05-13)"
   inkscape:export-filename="portt1.svg"
   inkscape:export-xdpi="55.841484"
   inkscape:export-ydpi="55.841484"
   xmlns:inkscape="http://www.inkscape.org/namespaces/inkscape"
   xmlns:sodipodi="http://sodipodi.sourceforge.net/DTD/sodipodi-0.dtd"
   xmlns="http://www.w3.org/2000/svg"
   xmlns:svg="http://www.w3.org/2000/svg"><sodipodi:namedview
     id="namedview1"
     pagecolor="#ffffff"
     bordercolor="#000000"
     borderopacity="0.25"
     inkscape:showpageshadow="2"
     inkscape:pageopacity="0.0"
     inkscape:pagecheckerboard="0"
     inkscape:deskcolor="#d1d1d1"
     inkscape:document-units="mm"
     showgrid="false"
     inkscape:zoom="0.59854834"
     inkscape:cx="570.54706"
     inkscape:cy="319.94074"
     inkscape:window-width="1920"
     inkscape:window-height="991"
     inkscape:window-x="-9"
     inkscape:window-y="-9"
     inkscape:window-maximized="1"
     inkscape:current-layer="svg1" /><defs
     id="defs1" /><g
     id="layer2"
     transform="translate(-10.723301,-71.471104)"><path
       style="opacity:1;fill:none;stroke:#707f99;stroke-width:0.264583px;stroke-linecap:butt;stroke-linejoin:miter;stroke-opacity:1"
       d="m 132.23364,211.93777 c 0.70664,-0.71287 1.80056,-1.73471 1.72818,-2.8798 l 39.07185,-44.90152 -0.68512,-0.35095 13.84663,-15.90958 c 2.99818,-3.44486 7.77078,-0.16819 4.69918,3.69304 l -13.42393,16.87494 -0.50226,-0.53484 -38.44283,44.90981 c -0.88743,-0.3084 -2.20453,1.08563 -2.95757,2.04492 z"
       id="path23"
       sodipodi:nodetypes="ccccssccccc" /><path
       style="fill:none;stroke:#707f99;stroke-width:0.412;stroke-linecap:butt;stroke-linejoin:miter;stroke-dasharray:none;stroke-opacity:1"
       d="m 131.09885,212.0016 c 1.09652,-1.04909 2.4257,-2.09871 2.06144,-3.08676 l 38.76497,-44.43773 -0.61183,-0.34883 14.53202,-16.67943 c 3.45184,-3.96191 9.16331,0.0385 5.46499,4.65677 l -14.02841,17.51809 -0.4615,-0.56575 -38.05653,44.61045 c -0.94778,-0.60826 -2.15383,1.10401 -3.04091,2.23567 z"
       id="path23-2"
       sodipodi:nodetypes="ccccscccccc" /><path
       style="fill:none;stroke:#707f99;stroke-width:0.251439px;stroke-linecap:butt;stroke-linejoin:miter;stroke-opacity:1"
       d="m 132.92179,185.81114 c 0.47575,-0.82678 1.42202,-2.09468 0.9016,-3.05177 l 25.05122,-50.65379 -0.67336,-0.18675 8.96158,-18.17489 c 1.91931,-3.89253 6.96018,-1.81519 5.07197,2.4481 l -8.3287,18.70468 -0.57325,-0.42816 -24.29737,50.66966 c -0.87834,-0.19507 -1.69732,1.48507 -2.15574,2.54952 z"
       id="path23-3"
       sodipodi:nodetypes="ccccssccccc" /><path
       style="fill:none;stroke:#707f99;stroke-width:0.396;stroke-linecap:butt;stroke-linejoin:miter;stroke-opacity:1;stroke-dasharray:none"
       d="m 132.03215,186.09355 c 0.37256,-0.81765 1.71786,-2.51809 1.14286,-3.33716 l 24.80172,-50.25334 -0.64692,-0.17162 9.29247,-18.85786 c 2.20728,-4.47936 8.42734,-2.19375 6.1533,2.94855 l -8.62581,19.50579 -0.56159,-0.40746 -24.10888,50.23967 c -1.01866,-0.32822 -1.71007,1.53816 -2.2497,2.79357 z"
       id="path23-2-1" /><path
       style="fill:none;stroke:#707f99;stroke-width:0.465;stroke-linecap:butt;stroke-linejoin:miter;stroke-opacity:1;stroke-dasharray:none"
       d="M 24.723124,77.701248 131.49442,88.025188 116.68771,236.09225 10.867307,226.17583 Z"
       id="path24" /><path
       style="fill:none;stroke:#707f99;stroke-width:0.365;stroke-linecap:butt;stroke-linejoin:miter;stroke-opacity:1;stroke-dasharray:none"
       d="M 26.624903,80.010549 129.4568,89.926968 114.78593,233.91878 13.17661,224.40989 Z"
       id="path25" /><path
       style="fill:none;stroke:#707f99;stroke-width:0.365;stroke-linecap:butt;stroke-linejoin:miter;stroke-opacity:1;stroke-dasharray:none"
       d="m 28.526682,82.25193 4.448803,0.373566 -13.21057,139.984494 -3.939399,-0.40752 z"
       id="path26" /><path
       style="fill:none;stroke:#707f99;stroke-width:0.264583px;stroke-linecap:butt;stroke-linejoin:miter;stroke-opacity:1"
       d="M 30.309598,84.357473 17.727295,220.47049 18.270661,220.53841 30.886926,84.408412 Z"
       id="path27" /></g></svg>
