<?xml version="1.0" encoding="UTF-8" standalone="no"?>
<!-- Created with Inkscape (http://www.inkscape.org/) -->

<svg
   width="206.74997mm"
   height="222.90556mm"
   viewBox="0 0 206.74997 222.90556"
   version="1.1"
   id="svg1"
   xml:space="preserve"
   xmlns="http://www.w3.org/2000/svg"
   xmlns:svg="http://www.w3.org/2000/svg"><defs
     id="defs1" /><g
     id="layer2"
     transform="translate(-1.6319157,-72.591691)"><path
       style="fill:none;stroke:#707f99;stroke-width:0.365;stroke-linecap:butt;stroke-linejoin:miter;stroke-dasharray:none;stroke-opacity:1"
       d="m 22.11027,155.84885 c -8.370396,-2.54886 -10.097926,-8.45288 -6.679855,-12.05034 -3.850752,-5.03605 -7.8927396,-8.87562 2.077892,-11.39868 -0.781581,-1.98276 -2.743173,-4.51348 1.645968,-8.84853 0.71929,-0.71043 5.06431,-4.44995 7.089167,-5.11924 2.024857,-0.6693 3.348914,0.61072 4.037018,3.21475 4.641549,-1.7229 7.381931,-0.85921 10.016653,-0.92985 -1.790288,-2.78166 -0.888822,-6.01774 1.290698,-6.75778 1.08976,-0.37002 4.852365,-1.79698 7.124847,-1.55874 2.272482,0.23824 3.91933,1.94957 5.388185,5.45475 0,0 2.220278,-2.28066 4.508777,-1.50044 2.239714,0.76359 5.506172,7.4096 6.166709,11.84737 0,0 -0.237554,-9.56205 0.912406,-12.0736 1.169182,-2.55353 8.2947,-5.45221 8.2947,-5.45221 0.204162,-1.04772 -1.705771,-1.75626 -1.000991,-1.96179 5.284443,-1.5411 3.357269,-7.65892 6.548217,-4.85789 0.8068,0.75338 1.000811,1.93735 0.960968,5.80448 0.538543,1.00155 4.645187,7.84351 8.583001,8.88115 8.432844,2.22211 7.658918,5.70509 6.012977,8.22961 6.823883,-1.81947 2.855734,8.03634 8.574333,12.13328 3.66035,2.62236 6.81582,3.90929 3.24653,7.67376 0.33253,0.8324 2.19304,6.12644 -6.48846,4.15024 -1.414067,1.87617 -1.685909,3.60827 -0.21338,5.48444 1.65305,-0.94227 4.5689,-1.86068 5.47213,-2.91235 7.19635,-8.37902 3.43684,-8.97264 6.34444,4.18998 0.5314,2.40565 3.44519,5.15628 7.76078,4.9738 6.48512,-0.27422 8.23552,9.56652 2.58972,8.39336 -1.98397,-0.41225 -3.22409,-1.63435 -3.6992,-2.51413 -1.78644,3.42887 -3.22869,3.78567 -4.24415,-0.40545 -3.24383,1.45851 -2.75323,5.71472 -1.20625,5.67213 5.29275,-0.14575 8.73243,0.77779 6.21779,2.94259 -1.0481,0.90229 -5.03868,3.72779 -6.23069,4.84618 -0.98868,0.92761 1.3852,1.68462 3.51577,2.07264 1.84309,0.33567 0.29801,4.24186 1.77854,3.70569 8.07428,-2.92406 7.52023,2.46728 3.19308,10.3512 0.0351,11.78842 -6.57833,9.34237 -6.50595,9.64522 0.60695,2.53987 -3.73575,5.78903 -6.29158,1.10687 -1.15828,-2.12191 -5.30204,-0.41456 -7.15637,-1.25233 -1.966996,-0.88865 -1.864595,-2.83576 0.24214,-5.27537 1.18858,-1.37639 -2.4917,1.44531 -2.547754,-4.78721 -1.011668,-0.29034 -4.625604,-1.29097 -5.930147,-2.74455 -0.260831,3.5079 -0.608024,6.43124 0.128332,9.41589 1.540257,6.24307 -2.449574,13.27742 -7.994344,19.58286 -4.150297,4.71966 -7.405289,7.90846 -10.814995,9.78719 -10.756005,5.92653 -13.620559,0.86763 -21.582864,-4.50147 -4.629755,-3.12191 -9.782281,-9.72029 -9.337774,-17.76262 -2.467239,-2.91681 -1.428699,-4.30497 0.498105,-4.61593 2.391604,-0.38598 -1.817268,-3.86464 -2.141446,-6.52688 0.114743,5.79113 -2.882704,8.52423 -8.234482,6.90617 -4.851342,-13.48621 -3.041728,-0.29008 -3.628627,0.867 -1.597766,3.15002 -9.311091,4.40412 -12.986969,-0.41364 -0.291532,3.47131 0.674727,4.94032 -2.80749,5.04385 -1.914095,0.0569 -1.364489,-4.47446 -3.864382,-4.11702 -5.1315999,0.73371 -11.7767863,-5.73671 -7.1189058,-12.09653 -3.18625004,-2.96302 -2.2759105,-8.33155 2.7271087,-9.12875 2.2573716,-0.3597 -1.9742289,-2.93937 -1.2475866,-5.88619 0.7266423,-2.94682 4.9618637,-4.18168 3.3854229,-6.91831 -1.1549177,-2.00488 -0.047404,-3.98717 1.4633984,-4.46093 2.9315104,-0.91927 0.7303224,-1.48811 1.0720254,-3.43168 0.341702,-1.94358 3.866152,-1.55173 4.5923,-5.26217 0.610366,-3.11882 5.015836,-4.15321 6.494514,-4.85385 z"
       id="path1" /><path
       style="fill:none;stroke:#707f99;stroke-width:0.365;stroke-linecap:butt;stroke-linejoin:miter;stroke-dasharray:none;stroke-opacity:1"
       d="m 60.322121,160.84298 c 1.310306,-1.94979 2.921822,-1.63613 3.541601,-0.54312 0.260067,-0.84805 0.228585,-4.14867 2.557849,-4.73987 2.80273,0.67659 1.361321,2.99166 4.326464,2.95022 0.518395,-0.007 0.617533,0.84411 0.956524,1.27617 0.985465,1.25602 -2.365911,1.79279 0.515308,3.51997 0.582037,0.34891 0.166564,1.5572 0.349181,2.72356 -0.39863,0.69392 -0.522174,1.67085 -2.257277,1.39279 0.35441,1.85769 -0.07222,3.0545 -3.025711,2.1132 l 1.248706,8.93305 c -0.44807,0.89733 -1.124891,0.76529 -1.825032,0.5283 -0.489082,-1.08262 0.01567,-1.33704 0.240135,-1.82503 l -1.34476,-6.72381 c -2.317963,0.65969 -3.40799,0.28036 -2.401358,-1.87306 -3.56737,-0.34486 -3.086567,-3.53879 -0.816462,-3.50598 l 0.33619,-1.34476 c -3.714975,1.78254 -2.904418,-0.69425 -2.401358,-2.88163 z"
       id="path5" /><path
       style="fill:none;stroke:#707f99;stroke-width:0.365;stroke-linecap:butt;stroke-linejoin:miter;stroke-dasharray:none;stroke-opacity:1"
       d="m 100.64592,127.50574 c -0.663756,-2.68296 -6.061327,-7.69188 -1.449407,-12.81998 5.889037,-6.54815 2.874187,-7.67773 2.152487,-11.50771 -0.57709,-3.0626 2.28968,-5.905399 3.98719,-6.390441 7.34279,-2.098115 4.44962,10.073481 11.62607,-0.756449 1.14056,-1.721217 10.62672,2.106615 9.68364,-2.235517 -2.20412,-10.148227 10.2816,-14.828139 10.41604,-14.072426 1.12724,6.336489 4.86373,4.649814 5.38873,1.638508 1.83305,-10.513996 21.0274,-12.863674 25.35625,1.052888 9.61879,5.370131 -2.26877,15.663383 3.84319,13.059162 24.04475,-10.245133 7.68504,4.163954 11.45735,2.348407 5.53698,-2.664852 7.79958,-8.629565 9.81815,1.658654 8.81889,-4.476859 14.3177,12.679664 6.10282,19.297364 -2.65168,7.0489 -6.81694,12.97925 -16.22106,16.07196 l 3.2607,3.12282 c 1.66922,1.59863 -1.1693,5.07579 3.85435,4.48274 2.99095,-0.35309 7.07972,3.86742 8.85422,11.92224 0.65252,2.96194 0.34412,6.67399 -1.23455,9.01475 1.8487,6.43518 -0.13238,15.1601 -6.8619,11.39772 -2.89147,-1.61657 -4.49423,6.67919 -12.33319,4.97846 -1.90075,2.13812 -6.90777,4.47454 -10.03812,0.2013 -1.31384,1.63557 -4.20428,1.25174 -7.90363,-1.04561 0.9521,2.76714 -0.61382,3.35332 -1.78176,4.21383 -1.16794,0.86051 3.36463,14.70892 -9.08055,2.05515 5.54222,9.34467 -4.74307,10.8776 -9.6354,0.76506 -3.23746,11.75627 -12.1871,7.95917 -10.65326,3.62184 1.43884,-4.06868 0.81672,-6.06675 -3.36742,-0.40025 0.0146,-2.40942 -1.24536,-4.6412 -3.6989,-4.04015 -6.1382,1.5037 -2.39356,-1.94029 -3.92258,-2.27602 -4.72507,-1.03749 -2.87307,-1.28127 3.55607,-6.09001 1.20568,-0.9018 4.34399,-3.31839 5.16481,-5.53929 2.0078,-5.43257 -1.56222,-9.85418 -5.4037,-10.21583 -3.34604,-0.31501 -6.28764,-0.22014 -8.01524,-3.85472 -1.41964,-5.12036 0.15736,-13.72019 -4.92878,-16.5499 -7.41842,-4.12727 -6.42444,-6.76982 -7.99262,-13.10855 z"
       id="path2" /><path
       style="fill:none;stroke:#707f99;stroke-width:0.365;stroke-linecap:butt;stroke-linejoin:miter;stroke-dasharray:none;stroke-opacity:1"
       d="m 134.27917,132.37738 c 0.97353,2.71683 3.13633,1.55815 9.2372,4.55069 2.84097,1.39135 7.59631,3.16946 7.94672,-0.88296 0.26152,-1.20484 2.25857,-0.24151 0.74713,-3.9394 0.034,-2.26403 -1.40651,-2.13217 -2.78,-2.10912 0.31385,-2.62363 -1.74493,-4.32335 -5.30256,-1.42277 l -5.9091,-0.6792 c -4.92092,-0.28652 -3.92681,1.61392 -3.93939,4.48276 z"
       id="path3" /><path
       style="fill:none;stroke:#707f99;stroke-width:0.365;stroke-linecap:butt;stroke-linejoin:miter;stroke-dasharray:none;stroke-opacity:1"
       d="m 62.193026,156.54166 c 2.88363,-8.80937 1.814439,-19.63141 0.668555,-24.87161 -1.024668,-4.68587 -3.364386,-16.82321 -9.68247,-9.87144 -2.219375,-5.7455 -5.017778,-7.00607 -8.962123,-5.5669 -4.023264,1.46797 -1.679936,4.15992 -0.883601,7.38391 -5.168804,-1.22428 -10.960791,-0.52626 -14.504446,1.0674 -1.18729,-5.55835 -5.352891,-1.93293 -8.680357,1.63855 -3.096153,3.32321 1.408423,5.35887 0.635141,7.07462 -8.787294,2.38858 -5.602968,5.49312 -1.16128,10.44162 -5.097595,4.32034 -0.845121,8.08284 6.594934,9.52707 7.287004,-7.75495 11.711927,3.47526 31.17276,5.67721 0.630373,-0.92105 2.025805,-3.59505 4.802887,-2.50043 z"
       id="path4" /><path
       style="fill:none;stroke:#707f99;stroke-width:0.365;stroke-linecap:butt;stroke-linejoin:miter;stroke-dasharray:none;stroke-opacity:1"
       d="m 70.71607,155.93519 c -0.715811,-1.85555 -2.440056,-3.44736 -4.697179,-2.97784 2.710452,-12.08364 0.831582,-27.05433 2.292824,-34.64635 0.408153,-2.1206 6.576112,-5.04555 8.256188,-6.32147 -1.783928,-3.33254 3.078525,-5.0509 1.597135,-1.73339 0.353636,1.48619 4.639156,7.24175 8.511389,10.21183 3.163674,1.00233 9.224821,0.77983 4.999997,9.22837 9.516416,-2.88572 2.698809,5.90429 10.083046,11.07342 2.56469,1.11227 5.40107,3.12937 2.45071,5.36874 1.13537,1.68728 0.55916,4.0081 -4.586467,2.04256 -3.335409,3.87399 -2.704201,6.96175 -1.310958,9.39689 -3.783475,5.83498 -22.418777,4.19434 -24.288879,2.87397 0.76906,-2.74993 -1.01176,-4.42077 -3.307806,-4.51673 z"
       id="path6" /><path
       style="fill:none;stroke:#707f99;stroke-width:0.365;stroke-linecap:butt;stroke-linejoin:miter;stroke-dasharray:none;stroke-opacity:1"
       d="m 56.960219,162.04366 c -0.376846,2.92254 0.457063,7.17321 2.785576,8.16462 0.131113,0.78667 -1.525541,6.33026 -2.977685,7.87646 -3.652598,3.88917 -17.836037,14.97638 -17.450927,18.28326 0.61849,5.31088 -0.279071,7.67249 -3.467137,7.27206 -2.136724,-6.69107 -6.253201,-10.53282 -7.737674,-5.07444 -0.795876,2.92642 0.239439,6.92223 -0.662113,7.8389 -2.309153,2.34787 -6.558899,0.91398 -9.086527,-2.7652 -0.975551,-1.42 -2.951273,-1.58939 -3.01927,0.78499 -0.175072,6.11326 -1.575061,0.98528 -2.464268,1.03054 -5.368825,0.27326 -11.4325124,-3.97795 -5.3875371,-10.53903 -3.8912513,-1.24068 -3.6990889,-5.96206 0.1036696,-5.83509 1.4141855,0.0472 2.5670275,-0.34538 2.7164465,-2.0314 0.330942,-3.73429 -6.4418761,-4.49787 3.408912,-11.17208 -4.5088513,-2.71953 -0.348503,-5.5996 1.743063,-5.86109 -3.21237,-4.01055 0.856673,-3.55258 1.751232,-5.66422 1.249171,-2.94872 1.906072,-5.44298 8.526581,-5.86229 7.106173,-10.40582 10.341844,0.51228 31.217658,3.55401 z"
       id="path7" /><path
       style="fill:none;stroke:#707f99;stroke-width:0.365;stroke-linecap:butt;stroke-linejoin:miter;stroke-dasharray:none;stroke-opacity:1"
       d="m 61.762935,172.60964 1.548523,0.79656 c 2.001843,1.56062 0.03305,2.99323 0.582153,5.93789 1.100898,4.37515 7.176649,2.04104 7.479585,-0.19711 0.134406,-0.99293 -0.836355,-6.63358 -0.836355,-6.63358 8.59226,5.81681 18.243953,13.98794 20.475639,19.42487 -0.181973,3.91875 -1.13403,7.44025 -0.385213,12.46517 1.917599,7.90178 -8.305917,19.45213 -14.533381,24.32937 -6.325725,4.9542 -11.199939,4.86372 -16.304533,0.86516 -1.747957,-1.36922 -3.333102,-2.54693 -5.458299,-3.98737 -5.886711,-3.98997 -8.849686,-12.38023 -7.453662,-15.02277 -0.32738,-0.31967 -1.704656,-1.26307 -1.489303,-2.15936 0.268734,-1.11845 3.708472,-1.08785 2.869563,-3.83975 -1.929919,-4.25463 -6.57887,-8.01266 -2.35486,-12.4495 2.863444,-3.00772 12.175087,-11.22392 13.041611,-12.50271 1.628889,-1.67255 2.421959,-4.55415 2.818532,-7.02705 z"
       id="path8" /><path
       style="fill:none;stroke:#707f99;stroke-width:0.365;stroke-linecap:butt;stroke-linejoin:miter;stroke-dasharray:none;stroke-opacity:1"
       d="m 72.713129,170.20828 c 1.521837,-1.38256 2.868882,-3.22904 2.037035,-7.01538 8.790591,1.28064 20.017112,1.40088 25.372406,-4.15807 1.94459,-2.01854 5.44493,-2.74457 7.2029,-4.57964 2.86987,-2.99573 1.39665,-3.53341 2.5262,3.70753 0.50143,3.21434 5.07631,7.33882 11.78845,6.81584 3.30186,1.99068 2.41314,6.73274 -3.2532,0.79331 -1.71802,3.88405 -2.35645,2.79541 -2.85469,-0.43905 -5.583,0.1108 -7.76545,7.46475 -4.04993,11.0609 6.9995,-0.95162 6.4647,-0.92285 1.09837,2.65338 -2.90573,1.93644 -3.50034,3.73906 -0.51069,5.35881 1.48572,0.80494 3.32973,1.24382 3.18705,2.3624 -0.33302,2.61074 1.71811,3.47181 3.22597,2.86521 5.71111,-2.29756 4.06878,1.20114 0.48528,7.08816 0.12549,5.10156 0.14449,9.41451 -5.77608,8.41117 0.34869,3.96424 -1.99195,3.39342 -3.01642,1.12112 -0.36637,-0.81261 -1.4454,-1.09399 -2.44293,-1.30299 -1.39667,-0.29263 -6.28007,0.79229 -3.69881,-1.85655 1.72006,-1.76509 2.24482,-3.78329 0.37701,-4.52611 -1.90928,0.23479 -2.15376,-1.24876 -2.20924,-4.27442 -2.236032,-0.42627 -7.088228,-2.43712 -8.268225,-3.74803 -2.937341,-6.15074 -12.798392,-14.12817 -21.220456,-20.33759 z"
       id="path9" /><path
       style="fill:none;stroke:#707f99;stroke-width:0.365;stroke-linecap:butt;stroke-linejoin:miter;stroke-dasharray:none;stroke-opacity:1"
       d="m 144.94599,141.10381 c 1.29137,7.44268 5.48869,21.56633 13.73577,32.94664 1.73314,2.01348 6.84728,6.25098 10.27782,2.30531 1.81602,2.58213 4.57255,5.03365 8.26066,0.96054 5.83134,2.23667 10.52747,-7.81528 14.4644,-4.87801 4.77568,1.6891 3.52443,-5.11058 2.15301,-10.20252 4.93005,-3.14118 0.15167,-17.69796 -5.03462,-16.92205 -6.31017,0.94406 -4.04672,-2.91267 -5.087,-5.30049 -0.75197,-2.41118 -3.75181,-3.13135 -5.24708,-3.80819 l -23.81665,1.6048 c -1.11788,2.7312 -2.48329,5.72071 -9.70631,3.29397 z"
       id="path10" /><path
       style="fill:none;stroke:#707f99;stroke-width:0.365;stroke-linecap:butt;stroke-linejoin:miter;stroke-dasharray:none;stroke-opacity:1"
       d="m 145.2144,125.10987 23.22886,-26.285295 c 12.02981,-4.218928 14.50265,-7.052468 11.20692,-0.135842 -0.59469,1.248061 1.40482,2.939867 5.09404,0.407526 5.63951,-4.49981 5.83031,-3.225638 6.69884,2.960361 7.87611,-3.879154 12.12847,9.02544 5.29782,14.49525 -5.49014,18.08625 -25.25284,17.38697 -41.05847,18.22887 -0.46251,-4.53525 -0.66338,-7.07225 -4.02522,-7.13307 -1.15549,-3.76844 -3.82491,-3.59361 -6.44279,-2.5378 z"
       id="path11" /><path
       style="fill:none;stroke:#707f99;stroke-width:0.365;stroke-linecap:butt;stroke-linejoin:miter;stroke-dasharray:none;stroke-opacity:1"
       d="m 139.23737,124.02314 c -3.26578,-6.80045 -9.20046,-24.388126 -9.701,-31.843138 -0.31036,-4.622559 3.36763,-8.140608 5.6559,-8.872302 1.08353,5.062063 7.94417,5.714838 9.54668,-0.512402 2.69175,-10.459987 16.81793,-9.575307 20.44412,1.22257 6.68086,2.191427 3.2042,9.289092 -0.4315,14.456504 -4.28145,6.085198 -16.16536,19.717288 -22.38985,25.820448 -0.85398,0.38039 -1.60436,1.84548 -3.12435,-0.27168 z"
       id="path12" /><path
       style="fill:none;stroke:#707f99;stroke-width:0.365;stroke-linecap:butt;stroke-linejoin:miter;stroke-dasharray:none;stroke-opacity:1"
       d="m 134.68668,136.86015 c -7.19956,1.23772 -15.35787,4.36411 -19.35739,10.93523 -1.45352,-8.04174 -5.1352,-8.50867 -8.35424,-10.66355 -4.71765,-3.15808 -2.76712,-9.05844 -5.43365,-13.31244 -5.103976,-8.14254 5.96739,-10.40492 3.80848,-15.82031 -3.6265,-9.096661 2.06339,-11.470712 5.08913,-4.96343 2.09131,4.49764 7.20402,-4.602035 8.40157,-4.822365 1.84317,-0.339114 3.24765,0.81596 8.11423,0.03767 2.36186,8.158875 5.15669,16.779025 9.09029,26.858925 -3.41868,0.2616 -4.93394,2.73327 -4.6622,5.88039 0.24308,2.81522 0.95648,4.87766 3.30378,5.86988 z"
       id="path13" /><path
       style="fill:none;stroke:#707f99;stroke-width:0.365;stroke-linecap:butt;stroke-linejoin:miter;stroke-dasharray:none;stroke-opacity:1"
       d="m 138.22218,138.22219 3.74612,1.72897 c 0.9086,4.06214 6.85224,25.25091 15.34669,36.05873 2.87829,6.36813 -0.65879,3.11872 -1.42494,6.6944 -0.76615,3.57568 3.36325,8.56017 -6.09273,-0.2048 -1.37273,-1.27241 -3.59461,0.94525 -2.80343,2.20976 4.82142,7.70595 -0.18272,6.52409 -2.67668,4.00909 -1.22427,-1.2346 -2.31388,-3.75403 -4.76675,-8.0538 -0.69261,2.26328 -1.8032,4.59062 -2.33698,5.75663 -2.84621,6.21736 -6.09236,5.87709 -4.9469,2.2968 1.4348,-4.48466 -1.46667,-7.60299 -5.50983,-3.63093 -1.55963,-5.01719 -7.22699,0.94075 -4.93855,-3.75777 -5.7775,0.56484 1.06274,-1.71553 5.81953,-7.61642 3.22346,-3.99876 2.89537,-14.31175 -6.81597,-14.78336 -8.55283,-0.41535 -6.02897,-10.4008 3.11274,-15.87188 3.58378,-2.1448 9.58899,-3.34326 14.28768,-4.83542 z"
       id="path14" /><path
       style="fill:none;stroke:#707f99;stroke-width:0.365;stroke-linecap:butt;stroke-linejoin:miter;stroke-dasharray:none;stroke-opacity:1"
       d="m 107.73658,208.40835 c 1.1456,0.60222 0.39516,2.65918 -0.56376,3.59407 6.27819,6.75942 4.04314,10.04404 1.64314,13.26134 2.77461,6.36814 1.45611,9.50488 -2.64614,10.44392 0.0632,4.5442 1.05005,9.966 -6.358266,11.42629 -0.959291,4.22136 -2.864748,7.71021 -9.380595,7.62972 -1.086691,4.39857 -4.264948,5.51039 -7.860405,5.9666 -1.71778,4.83485 -3.355009,8.44005 -8.513835,8.38499 -2.289468,2.97658 -4.169168,5.77497 -8.241182,3.76042 -1.580117,2.59459 -2.37938,6.50201 -9.315362,4.47458 -1.535991,4.03748 -5.019821,5.6329 -10.083838,3.68414 -1.740974,2.8858 -6.652697,6.12844 -11.384635,3.78338 -1.974669,4.30134 -7.229959,4.39581 -9.975483,3.59348 -2.674791,1.32245 -7.706334,3.68327 -10.64807,1.62476 -2.719152,-1.90275 -1.495329,-6.01952 -1.96092,-9.7613 -7.5993014,-1.0952 -4.8550274,-8.68342 -4.090502,-10.41009 -6.1195709,-4.83265 -2.2040292,-10.40993 -1.8006399,-11.49699 -4.0374752,-5.79169 -1.7284758,-9.3747 0.1564443,-12.52406 -1.3838583,-4.73541 0.092127,-9.60319 4.0455536,-10.41443 -1.7147107,-6.12962 3.63652,-11.59789 8.355184,-10.86559 0.438791,-5.19668 2.942986,-7.5996 9.757897,-7.21713 2.205899,-4.22928 8.079065,-7.1915 10.522497,-7.22423 2.885535,-0.0387 2.22469,5.3557 2.894549,7.40688 2.449495,7.50061 8.284981,11.95188 12.948969,15.19226 7.228214,5.02192 12.447231,7.75043 22.170005,1.08253 4.044542,-2.77375 7.590013,-6.10325 10.770691,-9.75716 4.186443,-4.80932 7.908632,-11.99638 8.212645,-17.62597 -2.442997,-12.69528 0.803462,-6.03711 2.985114,-3.59218 -1.126219,2.72062 -2.929626,5.33529 4.322454,5.59171 0,0 3.12119,-0.49415 4.03849,-0.0119 z"
       id="path15" /><path
       style="fill:none;stroke:#707f99;stroke-width:0.365;stroke-linecap:butt;stroke-linejoin:miter;stroke-dasharray:none;stroke-opacity:1"
       d="m 98.417051,210.21447 c 3.574029,0.31158 9.531519,-0.88076 6.316619,1.90178 2.42313,3.98836 7.1175,7.93037 1.15466,12.08988 2.33853,4.85333 4.05658,9.37662 -1.96971,9.78058 0.46897,5.39687 1.13592,10.93646 -5.977015,10.86731 -1.015714,3.54474 -0.753282,7.72855 -8.693846,7.81087 -1.774424,4.71448 -4.523701,6.13884 -7.742954,5.97702 -1.910686,4.62343 -3.918513,9.05257 -8.490085,8.35423 -1.737171,3.10414 -4.106769,6.3355 -8.15048,3.93942 -2.170535,4.64461 -5.098558,6.19519 -9.440975,4.14316 -2.116272,2.92314 -2.963438,7.03924 -9.576813,3.73562 -3.00971,3.32312 -6.416427,6.95034 -11.546514,3.73563 -2.60986,4.20413 -5.791131,4.86551 -9.305132,3.46397 -9.429649,6.41869 -11.156893,1.75674 -10.323941,-6.58831 -6.276376,-1.45449 -5.7767647,-5.41315 -3.803558,-9.9164 -4.6366459,-3.29166 -4.1051823,-7.12734 -1.9017786,-11.139 -3.263877,-3.83127 -3.278659,-7.91904 0.3396033,-12.29364 -0.6352411,-3.71809 -1.7276716,-7.58409 3.5997953,-9.37306 -0.669943,-7.4229 2.235505,-10.92672 8.317283,-10.05791 0.856397,-4.35321 -0.19935,-8.0079 8.969529,-6.92474 2.440213,-4.5959 9.822284,-10.04623 9.531178,-4.21954 -0.112522,2.25221 1.73255,6.9873 3.418363,9.10066 2.072371,2.75513 5.937535,6.08969 10.413168,9.8465 14.301609,12.00466 23.05683,2.84099 28.765403,-1.4806 4.652123,-3.52182 7.425573,-6.662 10.120179,-10.79938 2.694607,-4.13739 4.516207,-7.43018 5.977021,-11.95405 z"
       id="path16" /><path
       style="fill:none;stroke:#707f99;stroke-width:0.365;stroke-linecap:butt;stroke-linejoin:miter;stroke-dasharray:none;stroke-opacity:1"
       d="m 127.69086,195.06816 -1.49426,-2.78474 c 0.0884,-1.16783 0.34972,-1.34935 0.65444,-0.75352 2.85609,5.58457 8.39029,5.60145 13.41338,-1.25397 4.32691,4.30716 8.68486,7.35676 13.26442,1.43116 7.50311,3.04472 7.61169,-1.7746 7.19136,-7.15639 1.31244,-0.39423 1.83666,-1.13335 1.70142,-2.3957 2.23928,0.94719 4.29366,1.26327 5.81788,0.48368 1.78066,1.49972 6.47968,5.31969 10.32395,5.16197 2.22298,-0.0912 4.62307,-1.06704 5.70532,-3.46395 2.12238,-0.13414 4.11351,-1.25257 6.92791,3.80356 4.26362,-0.95774 5.98002,1.558 6.26628,6.02393 2.18027,0.4023 5.04285,-0.52833 6.02737,5.79426 3.96647,2.91695 4.63278,6.36619 2.98851,10.1881 1.54727,2.80533 3.26377,5.56552 -0.47545,9.78058 0.64386,4.43343 -1.4568,6.63483 -3.53187,6.99583 -2.07507,0.361 -5.88724,-1.26396 -8.62593,-2.92059 -2.3558,6.06454 -7.11883,2.37537 -13.31245,-1.15465 -7.9575,1.07876 -8.75556,-4.75568 -8.76176,-6.38455 -7.59711,-0.81036 -3.7747,-13.1786 -7.93307,-11.2467 -6.80689,3.16237 -3.63965,-6.67789 -8.77542,-6.07307 -5.13577,0.60482 2.43667,9.87009 -10.93523,4.14316 -2.94795,-1.26255 -1.64039,6.26461 -9.51705,-1.60237 -1.00417,-1.00294 -6.85841,1.44891 -6.91975,-6.61603 z"
       id="path17" /><path
       style="fill:none;stroke:#707f99;stroke-width:0.365;stroke-linecap:butt;stroke-linejoin:miter;stroke-dasharray:none;stroke-opacity:1"
       d="m 130.2977,197.19954 c 5.27288,1.07961 7.61868,-1.67388 10.22979,-3.8902 4.17085,2.31765 7.59431,5.97814 13.59169,0.62435 8.49082,1.97335 8.41172,-3.08832 8.54883,-7.9725 0.88744,-0.0764 1.25727,-0.59643 1.2487,-1.44081 1.14124,0.3172 2.13129,0.80718 4.13034,0.14402 4.0428,2.9791 10.91058,8.61556 17.24176,1.53688 2.47562,-1.01855 3.7835,1.33638 5.1389,3.55401 2.78298,-0.51817 5.28658,-0.99524 5.81129,5.76325 3.38802,-0.11509 5.51914,1.08988 5.71523,5.57115 4.36058,2.59541 4.2158,5.76598 2.59347,9.12517 1.97846,2.94981 3.66463,5.9057 -0.38427,8.98108 1.435,8.53817 -5.07667,6.24556 -10.99821,2.54544 -1.97235,7.68101 -7.20698,2.12786 -11.76667,-0.67238 -6.87602,1.23028 -7.5899,-2.13083 -8.06856,-5.66721 -5.48733,-0.92241 -4.72918,-5.01545 -5.57115,-8.3087 -1.09729,-4.29192 -2.07533,-4.38151 -4.5955,-2.99391 -1.15544,0.63618 -2.63321,0.72963 -3.13687,-2.24105 -1.66857,-6.92864 -8.69398,-4.6611 -8.37982,-1.13147 0.26707,3.00064 -2.79182,3.24035 -4.53974,2.25576 -5.92359,-3.33667 -5.76157,1.73996 -7.73212,0.22051 l -3.98626,-3.07374 c -2.98144,-1.07541 -5.54299,0.4349 -5.09083,-2.92961 z"
       id="path18" /><path
       style="fill:none;stroke:#707f99;stroke-width:0.365;stroke-linecap:butt;stroke-linejoin:miter;stroke-dasharray:none;stroke-opacity:1"
       d="m 135.84134,213.54259 c 0.33026,-4.78104 5.39489,-6.39758 8.01464,-3.80356 4.03789,-3.10183 7.13544,-2.60142 11.54651,2.17346 3.11786,0.90747 6.68959,-1.29673 9.10137,6.38454 2.57861,0.67727 7.4661,0.28949 9.23721,8.42216 4.5551,0.79503 8.35246,3.72033 8.96553,9.91643 2.40144,1.69231 5.66283,5.0955 3.9394,9.91641 1.83854,2.50112 3.77168,4.59933 2.3093,10.73147 2.76981,2.98697 2.227,6.2561 -0.40752,10.32394 2.44223,3.46726 0.41877,8.43279 -2.03762,11.27482 0.88672,4.49274 -2.57499,8.77738 -7.74295,9.50889 -3.4336,8.33958 -7.58431,8.72364 -15.48592,3.66773 -4.8015,1.86004 -8.22543,1.50831 -11.54652,-3.26019 -5.24633,-0.10048 -9.87632,-0.83393 -11.54651,-6.65623 -8.11838,0.0142 -10.4235,-3.24975 -11.68235,-9.37305 -7.69363,-0.77444 -9.96307,-4.48008 -9.5089,-12.22572 -6.28447,-2.47233 -6.11181,-7.93586 -4.34692,-11.95404 -3.10084,-4.0766 -3.23835,-7.96799 -0.54336,-11.68235 -2.66435,-4.47859 -1.76597,-8.28916 1.35841,-11.68236 -2.5773,-6.10597 1.44345,-7.06721 3.51681,-8.23005 0.57737,-8.28955 7.98296,-8.67269 16.85939,-3.4523 z"
       id="path19" /><path
       style="fill:none;stroke:#707f99;stroke-width:0.365;stroke-linecap:butt;stroke-linejoin:miter;stroke-dasharray:none;stroke-opacity:1"
       d="m 138.18361,217.91964 c -1.49234,-4.89921 1.14921,-11.02151 6.01198,-5.05626 2.23004,-3.90557 6.83656,-4.21499 9.84849,1.35842 5.95106,-0.89935 7.76048,0.46835 9.10137,6.2487 7.49305,-0.21554 7.76572,4.58503 8.82969,8.08255 3.8121,0.89967 8.37392,0.68503 8.8976,9.37306 5.05754,3.02329 4.37138,6.36265 3.39604,8.82968 3.68167,3.71013 3.94006,7.72145 2.78474,10.93523 3.37869,4.20716 1.74519,6.75451 -0.40752,9.71264 3.12421,5.17022 0.10036,7.67628 -1.9697,10.59564 1.05953,6.70412 -3.49317,8.23958 -6.9279,8.8297 -3.60861,8.85046 -8.19634,7.89935 -14.60294,2.98849 -1.30494,1.49871 -7.82768,3.217 -10.39187,-2.71682 -7.33732,1.03286 -10.04269,-3.58542 -11.23505,-7.16946 -8.97128,0.86565 -9.5108,-2.9392 -11.38254,-9.05674 -9.0626,-0.17763 -9.83188,-6.56826 -8.58414,-12.01032 -5.39504,-0.67264 -6.62104,-4.02245 -4.58846,-10.58597 -1.68394,-2.55011 -4.39864,-5.9794 -0.45414,-11.17195 -3.06875,-5.51631 -1.62428,-8.77601 1.4215,-11.23505 -3.1748,-5.71998 0.22569,-6.11032 2.62078,-7.47127 -0.1423,-10.15596 10.94736,-7.00736 17.63207,-0.48027 z"
       id="path20" /></g></svg>
